<svg height="512" viewBox="0 0 128 128" width="512" xmlns="http://www.w3.org/2000/svg"><g><g><path d="m1.75 24.802h103.992v57.887h-103.992z" fill="#00ddc1"/><path d="m105.742 35.056v47.634h-93.738v10.254h103.992v-57.888z" fill="#00ccb2"/><path d="m115.996 45.31v47.634h-93.739v10.254h103.993v-57.888z" fill="#00ddc1"/><path d="m97.742 65.823v-24.153a8.867 8.867 0 0 1 -8.867-8.87h-70.258a8.867 8.867 0 0 1 -8.867 8.87v24.153a8.867 8.867 0 0 1 8.867 8.867h70.258a8.867 8.867 0 0 1 8.867-8.867z" fill="#fedb41"/><path d="m61.012 52h-12.782v-2.193a2.253 2.253 0 0 1 2.25-2.25h10.532a1.75 1.75 0 0 0 0-3.5h-5.512v-3.257a1.75 1.75 0 0 0 -3.5 0v3.254h-1.52a5.757 5.757 0 0 0 -5.75 5.75v3.939a1.75 1.75 0 0 0 1.75 1.75h12.782v2.19a2.253 2.253 0 0 1 -2.25 2.25h-10.532a1.75 1.75 0 0 0 0 3.5h5.52v3.257a1.75 1.75 0 0 0 3.5 0v-3.254h1.516a5.756 5.756 0 0 0 5.75-5.75v-3.94a1.75 1.75 0 0 0 -1.754-1.746z" fill="#1689fc"/><g fill="#ff7816"><path d="m78.83 53.746a3.586 3.586 0 1 1 -3.585-3.586 3.585 3.585 0 0 1 3.585 3.586z"/><path d="m28.662 53.746a3.586 3.586 0 1 0 3.586-3.586 3.585 3.585 0 0 0 -3.586 3.586z"/></g></g><g><path d="m29.375 26.553h10.5a1.75 1.75 0 0 0 0-3.5h-10.5a1.75 1.75 0 0 0 0 3.5z"/><path d="m126.25 43.56h-8.5v-8.5a1.749 1.749 0 0 0 -1.75-1.75h-8.5v-8.51a1.749 1.749 0 0 0 -1.75-1.75h-53.125a1.75 1.75 0 0 0 0 3.5h51.367v54.39h-100.492v-54.387h13.125a1.75 1.75 0 0 0 0-3.5h-14.875a1.749 1.749 0 0 0 -1.75 1.747v57.89a1.75 1.75 0 0 0 1.75 1.75h8.5v8.5a1.749 1.749 0 0 0 1.75 1.753h8.5v8.5a1.749 1.749 0 0 0 1.75 1.75h77.062a1.75 1.75 0 1 0 0-3.5h-75.3v-6.75h91.988a1.749 1.749 0 0 0 1.75-1.75v-45.883h6.75v54.387h-9.531a1.75 1.75 0 0 0 0 3.5h11.281a1.749 1.749 0 0 0 1.75-1.747v-57.89a1.75 1.75 0 0 0 -1.75-1.75zm-12 47.633h-100.496v-6.753h91.988a1.75 1.75 0 0 0 1.75-1.75v-45.883h6.754v54.386z"/><path d="m16.867 32.8a7.124 7.124 0 0 1 -7.117 7.12 1.749 1.749 0 0 0 -1.75 1.75v24.153a1.749 1.749 0 0 0 1.75 1.75 7.125 7.125 0 0 1 7.117 7.117 1.749 1.749 0 0 0 1.75 1.75h70.258a1.749 1.749 0 0 0 1.75-1.75 7.125 7.125 0 0 1 7.117-7.117 1.749 1.749 0 0 0 1.75-1.75v-24.153a1.749 1.749 0 0 0 -1.75-1.75 7.124 7.124 0 0 1 -7.117-7.12 1.749 1.749 0 0 0 -1.75-1.75h-70.258a1.749 1.749 0 0 0 -1.75 1.75zm3.356 1.75h67.046a10.643 10.643 0 0 0 8.723 8.722v20.946a10.643 10.643 0 0 0 -8.723 8.722h-67.046a10.643 10.643 0 0 0 -8.723-8.722v-20.943a10.643 10.643 0 0 0 8.723-8.722z"/><path d="m57.012 59.936h-10.532a1.75 1.75 0 0 0 0 3.5h5.52v3.254a1.75 1.75 0 0 0 3.5 0v-3.254h1.516a5.756 5.756 0 0 0 5.75-5.75v-3.94a1.75 1.75 0 0 0 -1.754-1.746h-12.782v-2.193a2.253 2.253 0 0 1 2.25-2.25h10.532a1.75 1.75 0 0 0 0-3.5h-5.512v-3.257a1.75 1.75 0 0 0 -3.5 0v3.254h-1.52a5.757 5.757 0 0 0 -5.75 5.75v3.939a1.75 1.75 0 0 0 1.75 1.75h12.782v2.19a2.253 2.253 0 0 1 -2.25 2.253z"/><path d="m75.244 59.082a5.336 5.336 0 1 0 -5.336-5.336 5.342 5.342 0 0 0 5.336 5.336zm0-7.172a1.836 1.836 0 1 1 -1.836 1.836 1.837 1.837 0 0 1 1.836-1.836z"/><path d="m32.248 59.082a5.336 5.336 0 1 0 -5.336-5.336 5.342 5.342 0 0 0 5.336 5.336zm0-7.172a1.836 1.836 0 1 1 -1.836 1.836 1.837 1.837 0 0 1 1.836-1.836z"/></g></g></svg>