<?xml version="1.0" encoding="iso-8859-1"?>
<!-- Generator: Adobe Illustrator 19.0.0, SVG Export Plug-In . SVG Version: 6.00 Build 0)  -->
<svg version="1.1" id="Layer_1" xmlns="http://www.w3.org/2000/svg" xmlns:xlink="http://www.w3.org/1999/xlink" x="0px" y="0px"
	 viewBox="0 0 512 512" style="enable-background:new 0 0 512 512;" xml:space="preserve">
<path style="fill:#B79363;" d="M394.409,72.004h-69.105V108.6c0,2.873-2.351,5.224-5.224,5.224H160.682
	c-2.873,0-5.224-2.351-5.224-5.224V72.004H86.352c-2.873,0-5.224,2.351-5.224,5.224v391.004c0,2.873,2.351,5.224,5.224,5.224
	h220.967c-6.802-10.501-10.768-23.013-10.768-36.458c0-37.093,30.067-67.163,67.16-67.163c13.217,0,25.532,3.834,35.923,10.427
	V77.228C399.634,74.355,397.283,72.004,394.409,72.004z"/>
<g style="opacity:0.1;">
	<path d="M103.633,468.232V77.228c0-2.873,2.351-5.224,5.224-5.224H86.352c-2.873,0-5.224,2.351-5.224,5.224v391.004
		c0,2.873,2.351,5.224,5.224,5.224h22.505C105.984,473.457,103.633,471.106,103.633,468.232z"/>
</g>
<path style="fill:#FFF9F3;" d="M357.272,101.706h-31.968v6.894c0,2.873-2.351,5.224-5.224,5.224H160.682
	c-2.873,0-5.224-2.351-5.224-5.224v-6.894H123.49c-2.87,0-5.219,2.349-5.219,5.219v325.547c0,2.87,2.349,5.219,5.219,5.219h173.078
	c-0.002-0.232-0.018-0.461-0.018-0.693c0-36.683,29.412-66.478,65.938-67.133V106.925
	C362.49,104.055,360.141,101.706,357.272,101.706z"/>
<path style="fill:#FFCB00;" d="M118.271,354.769v77.703c0,2.87,2.349,5.219,5.219,5.219h77.7L118.271,354.769z"/>
<g style="opacity:0.1;">
	<path d="M141.061,432.473V106.925c0-2.871,2.349-5.219,5.219-5.219h-22.79c-2.87,0-5.219,2.349-5.219,5.219v325.547
		c0,2.87,2.349,5.219,5.219,5.219h22.79C143.41,437.692,141.061,435.343,141.061,432.473z"/>
</g>
<path style="fill:#FFCB00;" d="M289.702,61.179c0.119-1.378,0.2-2.767,0.2-4.176c0-27.153-22.172-49.166-49.521-49.166
	c-27.349,0-49.522,22.012-49.522,49.166c0,1.41,0.08,2.798,0.201,4.176H289.702z"/>
<path style="fill:#F39600;" d="M259.611,61.179c0.295-1.347,0.458-2.742,0.458-4.176c0-10.796-8.815-19.548-19.688-19.548
	c-10.875,0-19.689,8.752-19.689,19.548c0,1.435,0.163,2.83,0.458,4.176H259.611z"/>
<circle style="fill:#35D34F;" cx="363.708" cy="436.997" r="67.166"/>
<g style="opacity:0.1;">
	<path d="M319.164,436.999c0-33.237,24.148-60.818,55.853-66.196c-3.678-0.624-7.451-0.967-11.306-0.967
		c-37.093,0-67.16,30.07-67.16,67.163s30.067,67.164,67.16,67.164c3.855,0,7.629-0.343,11.306-0.967
		C343.312,497.819,319.164,470.238,319.164,436.999z"/>
</g>
<path style="fill:#FFCB00;" d="M325.304,108.6c0,2.873-2.351,5.224-5.224,5.224H160.682c-2.873,0-5.224-2.351-5.224-5.224V66.403
	c0-2.873,2.351-5.224,5.224-5.224h159.397c2.873,0,5.224,2.351,5.224,5.224V108.6z"/>
<g style="opacity:0.1;">
	<path d="M183.902,108.6V66.403c0-2.873,2.351-5.224,5.224-5.224h-28.444c-2.873,0-5.224,2.351-5.224,5.224V108.6
		c0,2.873,2.351,5.224,5.224,5.224h28.444C186.253,113.825,183.902,111.474,183.902,108.6z"/>
</g>
<path style="fill:#00A9FF;" d="M191.538,188.137c0,1.149-0.94,2.09-2.09,2.09h-25.128c-1.149,0-2.09-0.94-2.09-2.09V163.22
	c0-1.149,0.94-2.09,2.09-2.09h25.128c1.149,0,2.09,0.94,2.09,2.09V188.137z"/>
<path style="fill:#76D8FF;" d="M191.538,244.509c0,1.149-0.94,2.09-2.09,2.09h-25.128c-1.149,0-2.09-0.94-2.09-2.09v-24.917
	c0-1.149,0.94-2.09,2.09-2.09h25.128c1.149,0,2.09,0.94,2.09,2.09V244.509z"/>
<path style="fill:#00A9FF;" d="M191.538,300.882c0,1.149-0.94,2.09-2.09,2.09h-25.128c-1.149,0-2.09-0.94-2.09-2.09v-24.917
	c0-1.149,0.94-2.09,2.09-2.09h25.128c1.149,0,2.09,0.94,2.09,2.09V300.882z"/>
<path style="fill:#76D8FF;" d="M191.538,357.254c0,1.149-0.94,2.09-2.09,2.09h-25.128c-1.149,0-2.09-0.94-2.09-2.09v-24.917
	c0-1.149,0.94-2.09,2.09-2.09h25.128c1.149,0,2.09,0.94,2.09,2.09V357.254z"/>
<path d="M199.375,163.22c0-5.473-4.453-9.927-9.927-9.927h-25.128c-5.473,0-9.927,4.453-9.927,9.927v24.917
	c0,5.473,4.453,9.927,9.927,9.927h25.128c5.473,0,9.927-4.453,9.927-9.927V163.22z M183.701,182.39h-13.634v-13.423h13.634V182.39z"
	/>
<path d="M318.531,167.842h-96.466c-4.329,0-7.837,3.509-7.837,7.837c0,4.328,3.508,7.837,7.837,7.837h96.466
	c4.328,0,7.837-3.509,7.837-7.837C326.368,171.351,322.859,167.842,318.531,167.842z"/>
<path d="M199.375,219.593c0-5.473-4.453-9.927-9.927-9.927h-25.128c-5.473,0-9.927,4.453-9.927,9.927v24.917
	c0,5.473,4.453,9.927,9.927,9.927h25.128c5.473,0,9.927-4.453,9.927-9.927V219.593z M183.701,238.762h-13.634V225.34h13.634V238.762
	z"/>
<path d="M318.531,224.214h-96.466c-4.329,0-7.837,3.509-7.837,7.837c0,4.328,3.508,7.837,7.837,7.837h96.466
	c4.328,0,7.837-3.509,7.837-7.837C326.368,227.723,322.859,224.214,318.531,224.214z"/>
<path d="M199.375,275.965c0-5.473-4.453-9.927-9.927-9.927h-25.128c-5.473,0-9.927,4.453-9.927,9.927v24.917
	c0,5.473,4.453,9.927,9.927,9.927h25.128c5.473,0,9.927-4.453,9.927-9.927V275.965z M183.701,295.135h-13.634v-13.423h13.634
	V295.135z"/>
<path d="M318.531,280.586h-96.466c-4.329,0-7.837,3.509-7.837,7.837c0,4.328,3.508,7.837,7.837,7.837h96.466
	c4.328,0,7.837-3.509,7.837-7.837C326.368,284.095,322.859,280.586,318.531,280.586z"/>
<path d="M189.448,322.412h-25.128c-5.473,0-9.927,4.453-9.927,9.927v24.917c0,5.473,4.453,9.927,9.927,9.927h25.128
	c5.473,0,9.927-4.453,9.927-9.927v-24.917C199.375,326.864,194.922,322.412,189.448,322.412z M183.701,351.507h-13.634v-13.423
	h13.634V351.507z"/>
<path d="M318.531,336.96h-96.466c-4.329,0-7.837,3.509-7.837,7.837s3.508,7.837,7.837,7.837h96.466c4.328,0,7.837-3.509,7.837-7.837
	C326.368,340.467,322.859,336.96,318.531,336.96z"/>
<path d="M416.739,478.958c3.68,2.277,8.511,1.139,10.788-2.541c7.315-11.823,11.182-25.454,11.182-39.418
	c0-25.032-12.338-47.222-31.238-60.853v-51.183c0-4.328-3.508-7.837-7.837-7.837s-7.837,3.509-7.837,7.837v42.514
	c-6.73-2.729-13.941-4.508-21.471-5.168V185.992c0-4.328-3.508-7.837-7.837-7.837s-7.837,3.509-7.837,7.837v176.575
	c-34.76,4.207-62.264,32.268-65.589,67.289h-84.626l-78.329-78.332V109.543h21.561c0.486,6.763,6.129,12.119,13.013,12.119h27.398
	c4.329,0,7.837-3.509,7.837-7.837s-3.508-7.837-7.837-7.837h-24.787V69.016h154.173v36.973h-94.904
	c-4.329,0-7.837,3.509-7.837,7.837s3.508,7.837,7.837,7.837h97.516c6.884,0,12.526-5.356,13.013-12.119h21.56v47.192
	c0,4.328,3.508,7.837,7.837,7.837s7.837-3.509,7.837-7.837v-49.809c0-7.199-5.856-13.056-13.055-13.056h-24.131V79.841h58.656
	v213.776c0,4.328,3.508,7.837,7.837,7.837s7.837-3.509,7.837-7.837V77.228c0-7.202-5.859-13.061-13.061-13.061h-61.474
	c-1.066-6.139-6.417-10.825-12.855-10.825h-22.472C295.701,23.612,270.77,0,240.382,0c-30.389,0-55.32,23.612-57.228,53.342h-22.472
	c-6.438,0-11.79,4.686-12.856,10.825H86.352c-7.202,0-13.061,5.859-13.061,13.061v391.004c0,7.202,5.859,13.061,13.061,13.061
	h216.888C316.902,499.896,338.916,512,363.711,512c13.553,0,26.837-3.656,38.415-10.573c3.716-2.22,4.928-7.031,2.708-10.747
	c-2.219-3.715-7.031-4.927-10.747-2.708c-9.148,5.466-19.652,8.355-30.375,8.355c-32.712,0-59.323-26.614-59.323-59.327
	c0-32.713,26.612-59.326,59.323-59.326s59.324,26.614,59.324,59.326c0,11.049-3.056,21.827-8.838,31.17
	C411.921,471.851,413.059,476.68,416.739,478.958z M229.13,53.342c1.56-4.669,6.01-8.052,11.251-8.052s9.689,3.382,11.25,8.052
	H229.13z M240.382,15.673c21.74,0,39.635,16.589,41.512,37.669h-14.24c-1.805-13.375-13.342-23.725-27.272-23.725
	s-25.467,10.351-27.273,23.725h-14.24C200.745,32.262,218.642,15.673,240.382,15.673z M182.271,429.855h-56.163V373.69
	L182.271,429.855z M88.965,465.62V79.841h58.657v14.029h-24.131c-7.199,0-13.056,5.857-13.056,13.056v247.84
	c0,0.002,0,0.003,0,0.005v77.701c0,7.199,5.857,13.056,13.056,13.056h165.723c0.801,7.036,2.573,13.78,5.189,20.091H88.965V465.62z"
	/>
<path d="M388.258,419.246l-30.564,30.567l-18.532-18.531c-3.059-3.06-8.022-3.059-11.082,0c-3.06,3.061-3.06,8.023,0.001,11.083
	l20.379,20.377c2.462,2.463,5.743,3.82,9.236,3.82c3.493,0,6.773-1.356,9.236-3.819l32.413-32.415
	c3.06-3.06,3.06-8.023-0.001-11.083C396.28,416.185,391.317,416.187,388.258,419.246z"/>
<path d="M223.895,95.339h32.97c4.329,0,7.837-3.509,7.837-7.837s-3.508-7.837-7.837-7.837h-32.97c-4.329,0-7.837,3.509-7.837,7.837
	C216.059,91.83,219.568,95.339,223.895,95.339z"/>
<g>
</g>
<g>
</g>
<g>
</g>
<g>
</g>
<g>
</g>
<g>
</g>
<g>
</g>
<g>
</g>
<g>
</g>
<g>
</g>
<g>
</g>
<g>
</g>
<g>
</g>
<g>
</g>
<g>
</g>
</svg>
